<?xml version="1.0" encoding="utf-8"?><svg viewBox="0 0 100 100" xmlns="http://www.w3.org/2000/svg" width="47px" height="47px" xmlns:xlink="http://www.w3.org/1999/xlink" style="width:100%;height:100%;background-size:initial;background-repeat-y:initial;background-repeat-x:initial;background-position-y:initial;background-position-x:initial;background-origin:initial;background-image:initial;background-color:rgb(255, 255, 255);background-clip:initial;background-attachment:initial;animation-play-state:paused" ><g class="ldl-scale" style="transform-origin:50% 50%;transform:rotate(0deg) scale(0.8, 0.8);animation-play-state:paused" ><linearGradient y2="79.344" x2="50" y1="22.624" x1="50" gradientUnits="userSpaceOnUse" id="a" style="animation-play-state:paused" ><stop stop-color="#f5e6c8" offset="0" style="stop-color:rgb(245, 230, 200);animation-play-state:paused" ></stop>
<stop stop-color="#f8c788" offset=".509" style="stop-color:rgb(248, 199, 136);animation-play-state:paused" ></stop>
<stop stop-color="#f5e6c8" offset="1" style="stop-color:rgb(245, 230, 200);animation-play-state:paused" ></stop></linearGradient>
<circle stroke-miterlimit="10" stroke-width="3" stroke="#f8b26a" fill="url(#a)" r="40" cy="50" cx="50" style="stroke:rgb(248, 178, 106);animation-play-state:paused" ></circle>
<path stroke-miterlimit="10" stroke-linejoin="round" stroke-linecap="round" stroke-width="5" stroke="#000" fill="none" d="M29 68.75c14.444-12.111 28.889-12.111 43.333 0" style="stroke:rgb(0, 0, 0);animation-play-state:paused" ></path>
<path fill="#a0c8d7" d="M90.798 50.769c5.13 5.13 4.59 10.521.933 14.178-3.658 3.658-9.191 4.055-14.178-.933-5.261-5.261-6.099-13.46-6.185-17.293a2.086 2.086 0 0 1 2.138-2.138c3.832.087 12.031.925 17.292 6.186z" style="fill:rgb(160, 200, 215);animation-play-state:paused" ></path>
<path fill="#a0c8d7" d="M9.202 50.769c-5.13 5.13-4.59 10.521-.933 14.178 3.658 3.658 9.191 4.055 14.178-.933 5.261-5.261 6.099-13.46 6.185-17.293a2.086 2.086 0 0 0-2.138-2.138c-3.832.087-12.031.925-17.292 6.186z" style="fill:rgb(160, 200, 215);animation-play-state:paused" ></path>
<g style="animation-play-state:paused" ><ellipse ry="10.583" rx="5.44" cy="39.083" cx="34.921" style="animation-play-state:paused" ></ellipse>
<path d="M40.361 24.667l-15.028 9.666" stroke-miterlimit="10" stroke-linejoin="round" stroke-linecap="round" stroke-width="3" stroke="#000" fill="none" style="stroke:rgb(0, 0, 0);animation-play-state:paused" ></path></g>
<g style="animation-play-state:paused" ><ellipse ry="10.583" rx="5.44" cy="39.083" cx="65.079" style="animation-play-state:paused" ></ellipse>
<path d="M59.639 24.667l15.028 9.666" stroke-miterlimit="10" stroke-linejoin="round" stroke-linecap="round" stroke-width="3" stroke="#000" fill="none" style="stroke:rgb(0, 0, 0);animation-play-state:paused" ></path></g>
<metadata xmlns:d="https://loading.io/stock/" style="animation-play-state:paused" ><d:name style="animation-play-state:paused" >sad</d:name>


<d:tags style="animation-play-state:paused" >sad,grief,sorrow,sorry,upset,unhappy,regretful,depressed,down,miserable,tear,cry</d:tags>


<d:license style="animation-play-state:paused" >by</d:license>


<d:slug style="animation-play-state:paused" >xc6jw4</d:slug></metadata></g><!-- generated by https://loading.io/ --></svg>